<svg width="1200" height="420" viewBox="0 0 1200 420" fill="none" xmlns="http://www.w3.org/2000/svg">
  <title>Majesty Pharma ERP</title>
  <rect width="1200" height="420" fill="white"/>
  <g transform="translate(0 6)">
    <path
      d="M633 68C640 97 653 116 671 116C689 116 703 96 710 70C714 89 724 105 738 105C753 105 765 92 771 77C775 98 785 112 799 112C813 112 824 100 830 86C834 104 845 118 860 118C875 118 887 104 893 88L879 160C844 146 801 139 756 139C711 139 669 146 635 160L621 98C624 89 629 79 633 68Z"
      fill="#E6BB4B"
    />
    <circle cx="634" cy="59" r="11" fill="#E6BB4B"/>
    <circle cx="771" cy="76" r="9" fill="#E6BB4B"/>
    <circle cx="893" cy="79" r="9" fill="#E6BB4B"/>
    <circle cx="820" cy="112" r="8" fill="#E6BB4B"/>
    <circle cx="671" cy="116" r="8" fill="#E6BB4B"/>
  </g>
  <text
    x="110"
    y="280"
    fill="#E50909"
    font-size="190"
    font-style="italic"
    font-weight="700"
    font-family="'Brush Script MT', 'Segoe Script', 'Snell Roundhand', cursive"
  >
    Majesty
  </text>
  <text
    x="310"
    y="360"
    fill="#2E2E35"
    font-size="44"
    letter-spacing="26"
    font-family="'Segoe UI', Arial, sans-serif"
  >
    PHARMA ERP
  </text>
</svg>
